<svg xmlns="http://www.w3.org/2000/svg" version="1.1" width="288" height="288">
<polyline points="32,256 32,224 64,224 64,256 96,256 128,256 128,224 96,224 96,192 128,192 128,160 96,160 64,160 64,192 32,192 32,160 32,128 64,128 64,96 32,96 32,64 32,32 64,32 64,64 96,64 96,32 128,32 128,64 128,96 96,96 96,128 128,128 160,128 192,128 192,96 160,96 160,64 160,32 192,32 192,64 224,64 224,32 256,32 256,64 256,96 224,96 224,128 256,128 256,160 256,192 224,192 224,160 192,160 160,160 160,192 192,192 192,224 160,224 160,256 192,256 224,256 224,224 256,224 256,256" stroke="black" stroke-width="2" fill="none" />
</svg>
