<svg xmlns="http://www.w3.org/2000/svg" version="1.1" width="544" height="544">
<polyline points="32,512 64,512 64,480 32,480 32,448 32,416 64,416 64,448 96,448 96,416 128,416 128,448 128,480 96,480 96,512 128,512 160,512 160,480 192,480 192,512 224,512 256,512 256,480 224,480 224,448 256,448 256,416 224,416 192,416 192,448 160,448 160,416 160,384 160,352 192,352 192,384 224,384 256,384 256,352 224,352 224,320 256,320 256,288 224,288 192,288 192,320 160,320 160,288 128,288 96,288 96,320 128,320 128,352 128,384 96,384 96,352 64,352 64,384 32,384 32,352 32,320 64,320 64,288 32,288 32,256 32,224 64,224 64,256 96,256 128,256 128,224 96,224 96,192 128,192 128,160 96,160 64,160 64,192 32,192 32,160 32,128 64,128 64,96 32,96 32,64 32,32 64,32 64,64 96,64 96,32 128,32 128,64 128,96 96,96 96,128 128,128 160,128 192,128 192,96 160,96 160,64 160,32 192,32 192,64 224,64 224,32 256,32 256,64 256,96 224,96 224,128 256,128 256,160 256,192 224,192 224,160 192,160 160,160 160,192 192,192 192,224 160,224 160,256 192,256 224,256 224,224 256,224 256,256 288,256 288,224 320,224 320,256 352,256 384,256 384,224 352,224 352,192 384,192 384,160 352,160 320,160 320,192 288,192 288,160 288,128 320,128 320,96 288,96 288,64 288,32 320,32 320,64 352,64 352,32 384,32 384,64 384,96 352,96 352,128 384,128 416,128 448,128 448,96 416,96 416,64 416,32 448,32 448,64 480,64 480,32 512,32 512,64 512,96 480,96 480,128 512,128 512,160 512,192 480,192 480,160 448,160 416,160 416,192 448,192 448,224 416,224 416,256 448,256 480,256 480,224 512,224 512,256 512,288 480,288 480,320 512,320 512,352 512,384 480,384 480,352 448,352 448,384 416,384 416,352 416,320 448,320 448,288 416,288 384,288 384,320 352,320 352,288 320,288 288,288 288,320 320,320 320,352 288,352 288,384 320,384 352,384 352,352 384,352 384,384 384,416 384,448 352,448 352,416 320,416 288,416 288,448 320,448 320,480 288,480 288,512 320,512 352,512 352,480 384,480 384,512 416,512 448,512 448,480 416,480 416,448 416,416 448,416 448,448 480,448 480,416 512,416 512,448 512,480 480,480 480,512 512,512" stroke="red" stroke-width="2" fill="none" />
<line x1="32" y1="288" x2="32" y2="256" stroke="black" stroke-width="2" fill="none" />
<line x1="256" y1="256" x2="288" y2="256" stroke="black" stroke-width="2" fill="none" />
<line x1="512" y1="288" x2="512" y2="256" stroke="black" stroke-width="2" fill="none" />
</svg>
