<svg xmlns="http://www.w3.org/2000/svg" version="1.1" width="1056" height="1056">
<polyline points="32,1024 32,992 64,992 64,1024 96,1024 128,1024 128,992 96,992 96,960 128,960 128,928 96,928 64,928 64,960 32,960 32,928 32,896 64,896 64,864 32,864 32,832 32,800 64,800 64,832 96,832 96,800 128,800 128,832 128,864 96,864 96,896 128,896 160,896 192,896 192,864 160,864 160,832 160,800 192,800 192,832 224,832 224,800 256,800 256,832 256,864 224,864 224,896 256,896 256,928 256,960 224,960 224,928 192,928 160,928 160,960 192,960 192,992 160,992 160,1024 192,1024 224,1024 224,992 256,992 256,1024 288,1024 320,1024 320,992 288,992 288,960 288,928 320,928 320,960 352,960 352,928 384,928 384,960 384,992 352,992 352,1024 384,1024 416,1024 416,992 448,992 448,1024 480,1024 512,1024 512,992 480,992 480,960 512,960 512,928 480,928 448,928 448,960 416,960 416,928 416,896 416,864 448,864 448,896 480,896 512,896 512,864 480,864 480,832 512,832 512,800 480,800 448,800 448,832 416,832 416,800 384,800 352,800 352,832 384,832 384,864 384,896 352,896 352,864 320,864 320,896 288,896 288,864 288,832 320,832 320,800 288,800 288,768 320,768 320,736 288,736 288,704 288,672 320,672 320,704 352,704 352,672 384,672 384,704 384,736 352,736 352,768 384,768 416,768 416,736 448,736 448,768 480,768 512,768 512,736 480,736 480,704 512,704 512,672 480,672 448,672 448,704 416,704 416,672 416,640 416,608 448,608 448,640 480,640 512,640 512,608 480,608 480,576 512,576 512,544 480,544 448,544 448,576 416,576 416,544 384,544 352,544 352,576 384,576 384,608 384,640 352,640 352,608 320,608 320,640 288,640 288,608 288,576 320,576 320,544 288,544 256,544 256,576 224,576 224,544 192,544 160,544 160,576 192,576 192,608 160,608 160,640 192,640 224,640 224,608 256,608 256,640 256,672 224,672 224,704 256,704 256,736 256,768 224,768 224,736 192,736 192,768 160,768 160,736 160,704 192,704 192,672 160,672 128,672 96,672 96,704 128,704 128,736 128,768 96,768 96,736 64,736 64,768 32,768 32,736 32,704 64,704 64,672 32,672 32,640 32,608 64,608 64,640 96,640 128,640 128,608 96,608 96,576 128,576 128,544 96,544 64,544 64,576 32,576 32,544 32,512 64,512 64,480 32,480 32,448 32,416 64,416 64,448 96,448 96,416 128,416 128,448 128,480 96,480 96,512 128,512 160,512 160,480 192,480 192,512 224,512 256,512 256,480 224,480 224,448 256,448 256,416 224,416 192,416 192,448 160,448 160,416 160,384 160,352 192,352 192,384 224,384 256,384 256,352 224,352 224,320 256,320 256,288 224,288 192,288 192,320 160,320 160,288 128,288 96,288 96,320 128,320 128,352 128,384 96,384 96,352 64,352 64,384 32,384 32,352 32,320 64,320 64,288 32,288 32,256 32,224 64,224 64,256 96,256 128,256 128,224 96,224 96,192 128,192 128,160 96,160 64,160 64,192 32,192 32,160 32,128 64,128 64,96 32,96 32,64 32,32 64,32 64,64 96,64 96,32 128,32 128,64 128,96 96,96 96,128 128,128 160,128 192,128 192,96 160,96 160,64 160,32 192,32 192,64 224,64 224,32 256,32 256,64 256,96 224,96 224,128 256,128 256,160 256,192 224,192 224,160 192,160 160,160 160,192 192,192 192,224 160,224 160,256 192,256 224,256 224,224 256,224 256,256 288,256 288,224 320,224 320,256 352,256 384,256 384,224 352,224 352,192 384,192 384,160 352,160 320,160 320,192 288,192 288,160 288,128 320,128 320,96 288,96 288,64 288,32 320,32 320,64 352,64 352,32 384,32 384,64 384,96 352,96 352,128 384,128 416,128 448,128 448,96 416,96 416,64 416,32 448,32 448,64 480,64 480,32 512,32 512,64 512,96 480,96 480,128 512,128 512,160 512,192 480,192 480,160 448,160 416,160 416,192 448,192 448,224 416,224 416,256 448,256 480,256 480,224 512,224 512,256 512,288 480,288 480,320 512,320 512,352 512,384 480,384 480,352 448,352 448,384 416,384 416,352 416,320 448,320 448,288 416,288 384,288 384,320 352,320 352,288 320,288 288,288 288,320 320,320 320,352 288,352 288,384 320,384 352,384 352,352 384,352 384,384 384,416 384,448 352,448 352,416 320,416 288,416 288,448 320,448 320,480 288,480 288,512 320,512 352,512 352,480 384,480 384,512 416,512 448,512 448,480 416,480 416,448 416,416 448,416 448,448 480,448 480,416 512,416 512,448 512,480 480,480 480,512 512,512 544,512 576,512 576,480 544,480 544,448 544,416 576,416 576,448 608,448 608,416 640,416 640,448 640,480 608,480 608,512 640,512 672,512 672,480 704,480 704,512 736,512 768,512 768,480 736,480 736,448 768,448 768,416 736,416 704,416 704,448 672,448 672,416 672,384 672,352 704,352 704,384 736,384 768,384 768,352 736,352 736,320 768,320 768,288 736,288 704,288 704,320 672,320 672,288 640,288 608,288 608,320 640,320 640,352 640,384 608,384 608,352 576,352 576,384 544,384 544,352 544,320 576,320 576,288 544,288 544,256 544,224 576,224 576,256 608,256 640,256 640,224 608,224 608,192 640,192 640,160 608,160 576,160 576,192 544,192 544,160 544,128 576,128 576,96 544,96 544,64 544,32 576,32 576,64 608,64 608,32 640,32 640,64 640,96 608,96 608,128 640,128 672,128 704,128 704,96 672,96 672,64 672,32 704,32 704,64 736,64 736,32 768,32 768,64 768,96 736,96 736,128 768,128 768,160 768,192 736,192 736,160 704,160 672,160 672,192 704,192 704,224 672,224 672,256 704,256 736,256 736,224 768,224 768,256 800,256 800,224 832,224 832,256 864,256 896,256 896,224 864,224 864,192 896,192 896,160 864,160 832,160 832,192 800,192 800,160 800,128 832,128 832,96 800,96 800,64 800,32 832,32 832,64 864,64 864,32 896,32 896,64 896,96 864,96 864,128 896,128 928,128 960,128 960,96 928,96 928,64 928,32 960,32 960,64 992,64 992,32 1024,32 1024,64 1024,96 992,96 992,128 1024,128 1024,160 1024,192 992,192 992,160 960,160 928,160 928,192 960,192 960,224 928,224 928,256 960,256 992,256 992,224 1024,224 1024,256 1024,288 992,288 992,320 1024,320 1024,352 1024,384 992,384 992,352 960,352 960,384 928,384 928,352 928,320 960,320 960,288 928,288 896,288 896,320 864,320 864,288 832,288 800,288 800,320 832,320 832,352 800,352 800,384 832,384 864,384 864,352 896,352 896,384 896,416 896,448 864,448 864,416 832,416 800,416 800,448 832,448 832,480 800,480 800,512 832,512 864,512 864,480 896,480 896,512 928,512 960,512 960,480 928,480 928,448 928,416 960,416 960,448 992,448 992,416 1024,416 1024,448 1024,480 992,480 992,512 1024,512 1024,544 1024,576 992,576 992,544 960,544 928,544 928,576 960,576 960,608 928,608 928,640 960,640 992,640 992,608 1024,608 1024,640 1024,672 992,672 992,704 1024,704 1024,736 1024,768 992,768 992,736 960,736 960,768 928,768 928,736 928,704 960,704 960,672 928,672 896,672 864,672 864,704 896,704 896,736 896,768 864,768 864,736 832,736 832,768 800,768 800,736 800,704 832,704 832,672 800,672 800,640 800,608 832,608 832,640 864,640 896,640 896,608 864,608 864,576 896,576 896,544 864,544 832,544 832,576 800,576 800,544 768,544 736,544 736,576 768,576 768,608 768,640 736,640 736,608 704,608 704,640 672,640 672,608 672,576 704,576 704,544 672,544 640,544 640,576 608,576 608,544 576,544 544,544 544,576 576,576 576,608 544,608 544,640 576,640 608,640 608,608 640,608 640,640 640,672 640,704 608,704 608,672 576,672 544,672 544,704 576,704 576,736 544,736 544,768 576,768 608,768 608,736 640,736 640,768 672,768 704,768 704,736 672,736 672,704 672,672 704,672 704,704 736,704 736,672 768,672 768,704 768,736 736,736 736,768 768,768 768,800 736,800 736,832 768,832 768,864 768,896 736,896 736,864 704,864 704,896 672,896 672,864 672,832 704,832 704,800 672,800 640,800 640,832 608,832 608,800 576,800 544,800 544,832 576,832 576,864 544,864 544,896 576,896 608,896 608,864 640,864 640,896 640,928 640,960 608,960 608,928 576,928 544,928 544,960 576,960 576,992 544,992 544,1024 576,1024 608,1024 608,992 640,992 640,1024 672,1024 704,1024 704,992 672,992 672,960 672,928 704,928 704,960 736,960 736,928 768,928 768,960 768,992 736,992 736,1024 768,1024 800,1024 800,992 832,992 832,1024 864,1024 896,1024 896,992 864,992 864,960 896,960 896,928 864,928 832,928 832,960 800,960 800,928 800,896 832,896 832,864 800,864 800,832 800,800 832,800 832,832 864,832 864,800 896,800 896,832 896,864 864,864 864,896 896,896 928,896 960,896 960,864 928,864 928,832 928,800 960,800 960,832 992,832 992,800 1024,800 1024,832 1024,864 992,864 992,896 1024,896 1024,928 1024,960 992,960 992,928 960,928 928,928 928,960 960,960 960,992 928,992 928,1024 960,1024 992,1024 992,992 1024,992 1024,1024" stroke="black" stroke-width="2" fill="none" />
</svg>
